solid
 facet normal  1.000000e+00  0.000000e+00  0.000000e+00
   outer loop
     vertex  1.210000e+01 -1.481823e-15  6.800000e+00
     vertex  1.210000e+01 -1.400000e+00  0.000000e+00
     vertex  1.210000e+01 -1.481823e-15  0.000000e+00
   endloop
 endfacet
 facet normal  1.000000e+00  0.000000e+00  0.000000e+00
   outer loop
     vertex  1.210000e+01 -1.481823e-15  6.800000e+00
     vertex  1.210000e+01 -1.400000e+00  6.800000e+00
     vertex  1.210000e+01 -1.400000e+00  0.000000e+00
   endloop
 endfacet
 facet normal  1.224647e-16  1.000000e+00  0.000000e+00
   outer loop
     vertex  4.500000e+00 -5.510911e-16  2.200000e+00
     vertex  1.210000e+01 -1.481823e-15  6.800000e+00
     vertex  1.210000e+01 -1.481823e-15  0.000000e+00
   endloop
 endfacet
 facet normal  1.224647e-16  1.000000e+00  0.000000e+00
   outer loop
     vertex  4.500000e+00 -5.510911e-16  6.800000e+00
     vertex  1.210000e+01 -1.481823e-15  6.800000e+00
     vertex  4.500000e+00 -5.510911e-16  2.200000e+00
   endloop
 endfacet
 facet normal  1.224647e-16  1.000000e+00 -2.256467e-32
   outer loop
     vertex -1.210000e+01  1.481823e-15  6.800000e+00
     vertex -4.500000e+00  5.510911e-16  6.800000e+00
     vertex -4.500000e+00  5.510911e-16  2.200000e+00
   endloop
 endfacet
 facet normal  1.224647e-16  1.000000e+00  0.000000e+00
   outer loop
     vertex -1.210000e+01  1.481823e-15  6.800000e+00
     vertex -4.500000e+00  5.510911e-16  2.200000e+00
     vertex -1.210000e+01  1.481823e-15  0.000000e+00
   endloop
 endfacet
 facet normal  1.224647e-16  1.000000e+00  0.000000e+00
   outer loop
     vertex -1.210000e+01  1.481823e-15  0.000000e+00
     vertex  4.500000e+00 -5.510911e-16  2.200000e+00
     vertex  1.210000e+01 -1.481823e-15  0.000000e+00
   endloop
 endfacet
 facet normal  1.224647e-16  1.000000e+00  0.000000e+00
   outer loop
     vertex -1.210000e+01  1.481823e-15  0.000000e+00
     vertex -4.500000e+00  5.510911e-16  2.200000e+00
     vertex  4.500000e+00 -5.510911e-16  2.200000e+00
   endloop
 endfacet
 facet normal -0.000000e+00  0.000000e+00  1.000000e+00
   outer loop
     vertex  4.500000e+00 -1.400000e+00  6.800000e+00
     vertex  1.210000e+01 -1.400000e+00  6.800000e+00
     vertex  1.210000e+01 -1.481823e-15  6.800000e+00
   endloop
 endfacet
 facet normal  0.000000e+00  0.000000e+00  1.000000e+00
   outer loop
     vertex  4.500000e+00 -1.400000e+00  6.800000e+00
     vertex  1.210000e+01 -1.481823e-15  6.800000e+00
     vertex  4.500000e+00 -5.510911e-16  6.800000e+00
   endloop
 endfacet
 facet normal -1.110223e-16 -1.000000e+00 -0.000000e+00
   outer loop
     vertex  1.010000e+01 -1.400000e+00  3.200000e+00
     vertex  1.010000e+01 -1.400000e+00  0.000000e+00
     vertex  1.210000e+01 -1.400000e+00  0.000000e+00
   endloop
 endfacet
 facet normal -2.220446e-16 -1.000000e+00  0.000000e+00
   outer loop
     vertex  8.100000e+00 -1.400000e+00  2.200000e+00
     vertex  9.100000e+00 -1.400000e+00  1.000000e+00
     vertex  9.100000e+00 -1.400000e+00  3.200000e+00
   endloop
 endfacet
 facet normal -2.220446e-16 -1.000000e+00  6.167906e-17
   outer loop
     vertex  1.210000e+01 -1.400000e+00  6.800000e+00
     vertex  9.100000e+00 -1.400000e+00  3.200000e+00
     vertex  1.010000e+01 -1.400000e+00  3.200000e+00
   endloop
 endfacet
 facet normal -1.110223e-16 -1.000000e+00 -0.000000e+00
   outer loop
     vertex  1.210000e+01 -1.400000e+00  6.800000e+00
     vertex  1.010000e+01 -1.400000e+00  3.200000e+00
     vertex  1.210000e+01 -1.400000e+00  0.000000e+00
   endloop
 endfacet
 facet normal -2.220446e-16 -1.000000e+00  6.167906e-17
   outer loop
     vertex  8.100000e+00 -1.400000e+00  3.200000e+00
     vertex  9.100000e+00 -1.400000e+00  3.200000e+00
     vertex  1.210000e+01 -1.400000e+00  6.800000e+00
   endloop
 endfacet
 facet normal -2.220446e-16 -1.000000e+00 -0.000000e+00
   outer loop
     vertex  8.100000e+00 -1.400000e+00  3.200000e+00
     vertex  8.100000e+00 -1.400000e+00  2.200000e+00
     vertex  9.100000e+00 -1.400000e+00  3.200000e+00
   endloop
 endfacet
 facet normal -1.233581e-16 -1.000000e+00  8.223874e-17
   outer loop
     vertex  4.500000e+00 -1.400000e+00  2.200000e+00
     vertex  9.100000e+00 -1.400000e+00  1.000000e+00
     vertex  8.100000e+00 -1.400000e+00  2.200000e+00
   endloop
 endfacet
 facet normal -1.233581e-16 -1.000000e+00 -0.000000e+00
   outer loop
     vertex  4.500000e+00 -1.400000e+00  6.800000e+00
     vertex  4.500000e+00 -1.400000e+00  3.200000e+00
     vertex  8.100000e+00 -1.400000e+00  3.200000e+00
   endloop
 endfacet
 facet normal -1.460820e-16 -1.000000e+00 -2.272386e-17
   outer loop
     vertex  4.500000e+00 -1.400000e+00  6.800000e+00
     vertex  8.100000e+00 -1.400000e+00  3.200000e+00
     vertex  1.210000e+01 -1.400000e+00  6.800000e+00
   endloop
 endfacet
 facet normal -1.233581e-16 -1.000000e+00 -8.223874e-17
   outer loop
     vertex -8.100000e+00 -1.400000e+00  2.200000e+00
     vertex -9.100000e+00 -1.400000e+00  1.000000e+00
     vertex -4.500000e+00 -1.400000e+00  2.200000e+00
   endloop
 endfacet
 facet normal -1.233581e-16 -1.000000e+00 -6.086890e-32
   outer loop
     vertex -8.100000e+00 -1.400000e+00  3.200000e+00
     vertex -4.500000e+00 -1.400000e+00  3.200000e+00
     vertex -4.500000e+00 -1.400000e+00  6.800000e+00
   endloop
 endfacet
 facet normal -2.220446e-16 -1.000000e+00  0.000000e+00
   outer loop
     vertex -9.100000e+00 -1.400000e+00  3.200000e+00
     vertex -8.100000e+00 -1.400000e+00  2.200000e+00
     vertex -8.100000e+00 -1.400000e+00  3.200000e+00
   endloop
 endfacet
 facet normal -2.220446e-16 -1.000000e+00 -0.000000e+00
   outer loop
     vertex -9.100000e+00 -1.400000e+00  3.200000e+00
     vertex -9.100000e+00 -1.400000e+00  1.000000e+00
     vertex -8.100000e+00 -1.400000e+00  2.200000e+00
   endloop
 endfacet
 facet normal -1.110223e-16 -1.000000e+00 -0.000000e+00
   outer loop
     vertex -1.010000e+01 -1.400000e+00  3.200000e+00
     vertex -1.210000e+01 -1.400000e+00  0.000000e+00
     vertex -1.010000e+01 -1.400000e+00  0.000000e+00
   endloop
 endfacet
 facet normal -2.220446e-16 -1.000000e+00 -6.167906e-17
   outer loop
     vertex -1.210000e+01 -1.400000e+00  6.800000e+00
     vertex -1.010000e+01 -1.400000e+00  3.200000e+00
     vertex -9.100000e+00 -1.400000e+00  3.200000e+00
   endloop
 endfacet
 facet normal -1.460820e-16 -1.000000e+00  2.272386e-17
   outer loop
     vertex -1.210000e+01 -1.400000e+00  6.800000e+00
     vertex -8.100000e+00 -1.400000e+00  3.200000e+00
     vertex -4.500000e+00 -1.400000e+00  6.800000e+00
   endloop
 endfacet
 facet normal -2.220446e-16 -1.000000e+00 -6.167906e-17
   outer loop
     vertex -1.210000e+01 -1.400000e+00  6.800000e+00
     vertex -9.100000e+00 -1.400000e+00  3.200000e+00
     vertex -8.100000e+00 -1.400000e+00  3.200000e+00
   endloop
 endfacet
 facet normal -1.110223e-16 -1.000000e+00 -0.000000e+00
   outer loop
     vertex -1.210000e+01 -1.400000e+00  6.800000e+00
     vertex -1.210000e+01 -1.400000e+00  0.000000e+00
     vertex -1.010000e+01 -1.400000e+00  3.200000e+00
   endloop
 endfacet
 facet normal -1.220025e-16 -1.000000e+00  8.743515e-17
   outer loop
     vertex -9.100000e+00 -1.400000e+00  1.000000e+00
     vertex  9.100000e+00 -1.400000e+00  1.000000e+00
     vertex  4.500000e+00 -1.400000e+00  2.200000e+00
   endloop
 endfacet
 facet normal -9.868649e-17 -1.000000e+00 -1.768133e-16
   outer loop
     vertex -9.100000e+00 -1.400000e+00  1.000000e+00
     vertex  4.500000e+00 -1.400000e+00  2.200000e+00
     vertex -4.500000e+00 -1.400000e+00  2.200000e+00
   endloop
 endfacet
 facet normal  0.000000e+00  0.000000e+00 -1.000000e+00
   outer loop
     vertex  1.010000e+01 -1.400000e+00  0.000000e+00
     vertex  1.210000e+01 -1.481823e-15  0.000000e+00
     vertex  1.210000e+01 -1.400000e+00  0.000000e+00
   endloop
 endfacet
 facet normal  0.000000e+00  0.000000e+00 -1.000000e+00
   outer loop
     vertex  4.000000e+00 -3.400000e+00  0.000000e+00
     vertex  1.210000e+01 -1.481823e-15  0.000000e+00
     vertex  1.010000e+01 -1.400000e+00  0.000000e+00
   endloop
 endfacet
 facet normal  0.000000e+00  0.000000e+00 -1.000000e+00
   outer loop
     vertex  4.000000e+00 -3.400000e+00  0.000000e+00
     vertex  1.010000e+01 -1.400000e+00  0.000000e+00
     vertex  8.600000e+00 -3.400000e+00  0.000000e+00
   endloop
 endfacet
 facet normal  0.000000e+00  0.000000e+00 -1.000000e+00
   outer loop
     vertex -4.000000e+00 -3.400000e+00  0.000000e+00
     vertex  1.210000e+01 -1.481823e-15  0.000000e+00
     vertex  4.000000e+00 -3.400000e+00  0.000000e+00
   endloop
 endfacet
 facet normal  0.000000e+00  0.000000e+00 -1.000000e+00
   outer loop
     vertex -8.600000e+00 -3.400000e+00  0.000000e+00
     vertex -1.010000e+01 -1.400000e+00  0.000000e+00
     vertex -4.000000e+00 -3.400000e+00  0.000000e+00
   endloop
 endfacet
 facet normal  0.000000e+00  0.000000e+00 -1.000000e+00
   outer loop
     vertex -1.210000e+01  1.481823e-15  0.000000e+00
     vertex  1.210000e+01 -1.481823e-15  0.000000e+00
     vertex -4.000000e+00 -3.400000e+00  0.000000e+00
   endloop
 endfacet
 facet normal  0.000000e+00  0.000000e+00 -1.000000e+00
   outer loop
     vertex -1.210000e+01  1.481823e-15  0.000000e+00
     vertex -4.000000e+00 -3.400000e+00  0.000000e+00
     vertex -1.010000e+01 -1.400000e+00  0.000000e+00
   endloop
 endfacet
 facet normal  0.000000e+00  0.000000e+00 -1.000000e+00
   outer loop
     vertex -1.210000e+01 -1.400000e+00  0.000000e+00
     vertex -1.210000e+01  1.481823e-15  0.000000e+00
     vertex -1.010000e+01 -1.400000e+00  0.000000e+00
   endloop
 endfacet
 facet normal  0.000000e+00  0.000000e+00 -1.000000e+00
   outer loop
     vertex  4.000000e+00 -3.440000e+01  0.000000e+00
     vertex  8.600000e+00 -3.440000e+01  0.000000e+00
     vertex  1.010000e+01 -3.620000e+01  0.000000e+00
   endloop
 endfacet
 facet normal  0.000000e+00  0.000000e+00 -1.000000e+00
   outer loop
     vertex -4.000000e+00 -3.440000e+01  0.000000e+00
     vertex  4.000000e+00 -3.400000e+00  0.000000e+00
     vertex  4.000000e+00 -3.440000e+01  0.000000e+00
   endloop
 endfacet
 facet normal  0.000000e+00  0.000000e+00 -1.000000e+00
   outer loop
     vertex -4.000000e+00 -3.440000e+01  0.000000e+00
     vertex -4.000000e+00 -3.400000e+00  0.000000e+00
     vertex  4.000000e+00 -3.400000e+00  0.000000e+00
   endloop
 endfacet
 facet normal  0.000000e+00  0.000000e+00 -1.000000e+00
   outer loop
     vertex -1.010000e+01 -3.620000e+01  0.000000e+00
     vertex -8.600000e+00 -3.440000e+01  0.000000e+00
     vertex -4.000000e+00 -3.440000e+01  0.000000e+00
   endloop
 endfacet
 facet normal  0.000000e+00 -0.000000e+00 -1.000000e+00
   outer loop
     vertex -1.010000e+01 -1.400000e+00  0.000000e+00
     vertex -8.600000e+00 -3.400000e+00  0.000000e+00
     vertex -1.010000e+01 -3.620000e+01  0.000000e+00
   endloop
 endfacet
 facet normal  0.000000e+00  0.000000e+00 -1.000000e+00
   outer loop
     vertex -8.600000e+00 -3.400000e+00  0.000000e+00
     vertex -8.600000e+00 -3.440000e+01  0.000000e+00
     vertex -1.010000e+01 -3.620000e+01  0.000000e+00
   endloop
 endfacet
 facet normal  0.000000e+00  0.000000e+00 -1.000000e+00
   outer loop
     vertex -1.010000e+01 -3.620000e+01  0.000000e+00
     vertex  4.000000e+00 -3.440000e+01  0.000000e+00
     vertex  1.010000e+01 -3.620000e+01  0.000000e+00
   endloop
 endfacet
 facet normal  0.000000e+00  0.000000e+00 -1.000000e+00
   outer loop
     vertex -1.010000e+01 -3.620000e+01  0.000000e+00
     vertex -4.000000e+00 -3.440000e+01  0.000000e+00
     vertex  4.000000e+00 -3.440000e+01  0.000000e+00
   endloop
 endfacet
 facet normal  0.000000e+00  0.000000e+00 -1.000000e+00
   outer loop
     vertex  1.010000e+01 -3.620000e+01  0.000000e+00
     vertex  8.600000e+00 -3.400000e+00  0.000000e+00
     vertex  1.010000e+01 -1.400000e+00  0.000000e+00
   endloop
 endfacet
 facet normal  0.000000e+00  0.000000e+00 -1.000000e+00
   outer loop
     vertex  1.010000e+01 -3.620000e+01  0.000000e+00
     vertex  8.600000e+00 -3.440000e+01  0.000000e+00
     vertex  8.600000e+00 -3.400000e+00  0.000000e+00
   endloop
 endfacet
 facet normal -1.000000e+00  0.000000e+00 -0.000000e+00
   outer loop
     vertex -1.210000e+01  1.481823e-15  6.800000e+00
     vertex -1.210000e+01  1.481823e-15  0.000000e+00
     vertex -1.210000e+01 -1.400000e+00  0.000000e+00
   endloop
 endfacet
 facet normal -1.000000e+00 -0.000000e+00  0.000000e+00
   outer loop
     vertex -1.210000e+01  1.481823e-15  6.800000e+00
     vertex -1.210000e+01 -1.400000e+00  0.000000e+00
     vertex -1.210000e+01 -1.400000e+00  6.800000e+00
   endloop
 endfacet
 facet normal -0.000000e+00  0.000000e+00  1.000000e+00
   outer loop
     vertex -1.210000e+01 -1.400000e+00  6.800000e+00
     vertex -4.500000e+00 -1.400000e+00  6.800000e+00
     vertex -4.500000e+00  5.510911e-16  6.800000e+00
   endloop
 endfacet
 facet normal  0.000000e+00  0.000000e+00  1.000000e+00
   outer loop
     vertex -1.210000e+01 -1.400000e+00  6.800000e+00
     vertex -4.500000e+00  5.510911e-16  6.800000e+00
     vertex -1.210000e+01  1.481823e-15  6.800000e+00
   endloop
 endfacet
 facet normal  1.000000e+00  0.000000e+00  0.000000e+00
   outer loop
     vertex -4.500000e+00 -1.400000e+00  3.200000e+00
     vertex -4.500000e+00 -1.600000e+00  2.400000e+00
     vertex -4.500000e+00 -1.400000e+00  2.200000e+00
   endloop
 endfacet
 facet normal  1.000000e+00  0.000000e+00  0.000000e+00
   outer loop
     vertex -4.500000e+00 -1.400000e+00  3.200000e+00
     vertex -4.500000e+00 -1.600000e+00  3.000000e+00
     vertex -4.500000e+00 -1.600000e+00  2.400000e+00
   endloop
 endfacet
 facet normal  1.000000e+00  0.000000e+00  0.000000e+00
   outer loop
     vertex -4.500000e+00  5.510911e-16  2.200000e+00
     vertex -4.500000e+00 -1.400000e+00  3.200000e+00
     vertex -4.500000e+00 -1.400000e+00  2.200000e+00
   endloop
 endfacet
 facet normal  1.000000e+00 -6.344132e-16  4.934325e-16
   outer loop
     vertex -4.500000e+00  5.510911e-16  6.800000e+00
     vertex -4.500000e+00 -1.400000e+00  6.800000e+00
     vertex -4.500000e+00 -1.400000e+00  3.200000e+00
   endloop
 endfacet
 facet normal  1.000000e+00  1.379159e-16  1.930823e-16
   outer loop
     vertex -4.500000e+00  5.510911e-16  6.800000e+00
     vertex -4.500000e+00 -1.400000e+00  3.200000e+00
     vertex -4.500000e+00  5.510911e-16  2.200000e+00
   endloop
 endfacet
 facet normal -0.000000e+00  0.000000e+00  1.000000e+00
   outer loop
     vertex -4.500000e+00 -1.400000e+00  2.200000e+00
     vertex  4.500000e+00 -1.400000e+00  2.200000e+00
     vertex  4.500000e+00 -5.510911e-16  2.200000e+00
   endloop
 endfacet
 facet normal  0.000000e+00  0.000000e+00  1.000000e+00
   outer loop
     vertex -4.500000e+00 -1.400000e+00  2.200000e+00
     vertex  4.500000e+00 -5.510911e-16  2.200000e+00
     vertex -4.500000e+00  5.510911e-16  2.200000e+00
   endloop
 endfacet
 facet normal -1.000000e+00  0.000000e+00 -0.000000e+00
   outer loop
     vertex  4.500000e+00 -1.400000e+00  3.200000e+00
     vertex  4.500000e+00 -1.400000e+00  2.200000e+00
     vertex  4.500000e+00 -1.600000e+00  2.400000e+00
   endloop
 endfacet
 facet normal -1.000000e+00  0.000000e+00  0.000000e+00
   outer loop
     vertex  4.500000e+00 -1.400000e+00  3.200000e+00
     vertex  4.500000e+00 -1.600000e+00  2.400000e+00
     vertex  4.500000e+00 -1.600000e+00  3.000000e+00
   endloop
 endfacet
 facet normal -1.000000e+00  0.000000e+00  0.000000e+00
   outer loop
     vertex  4.500000e+00 -5.510911e-16  2.200000e+00
     vertex  4.500000e+00 -1.400000e+00  2.200000e+00
     vertex  4.500000e+00 -1.400000e+00  3.200000e+00
   endloop
 endfacet
 facet normal -1.000000e+00 -0.000000e+00  0.000000e+00
   outer loop
     vertex  4.500000e+00 -5.510911e-16  6.800000e+00
     vertex  4.500000e+00 -1.400000e+00  3.200000e+00
     vertex  4.500000e+00 -1.400000e+00  6.800000e+00
   endloop
 endfacet
 facet normal -1.000000e+00  0.000000e+00 -0.000000e+00
   outer loop
     vertex  4.500000e+00 -5.510911e-16  6.800000e+00
     vertex  4.500000e+00 -5.510911e-16  2.200000e+00
     vertex  4.500000e+00 -1.400000e+00  3.200000e+00
   endloop
 endfacet
 facet normal  1.000000e+00 -1.020895e-16  0.000000e+00
   outer loop
     vertex  1.010000e+01 -1.400000e+00  3.200000e+00
     vertex  1.010000e+01 -3.620000e+01  0.000000e+00
     vertex  1.010000e+01 -1.400000e+00  0.000000e+00
   endloop
 endfacet
 facet normal  1.000000e+00 -1.020895e-16  0.000000e+00
   outer loop
     vertex  1.010000e+01 -1.400000e+00  3.200000e+00
     vertex  1.010000e+01 -3.620000e+01  3.200000e+00
     vertex  1.010000e+01 -3.620000e+01  0.000000e+00
   endloop
 endfacet
 facet normal  0.000000e+00  0.000000e+00  1.000000e+00
   outer loop
     vertex  9.100000e+00 -3.480000e+01  3.200000e+00
     vertex  1.010000e+01 -1.400000e+00  3.200000e+00
     vertex  9.100000e+00 -1.400000e+00  3.200000e+00
   endloop
 endfacet
 facet normal  0.000000e+00 -0.000000e+00  1.000000e+00
   outer loop
     vertex  1.010000e+01 -3.620000e+01  3.200000e+00
     vertex  1.010000e+01 -1.400000e+00  3.200000e+00
     vertex  9.100000e+00 -3.480000e+01  3.200000e+00
   endloop
 endfacet
 facet normal -0.000000e+00  0.000000e+00  1.000000e+00
   outer loop
     vertex  5.300000e+00 -3.480000e+01  3.200000e+00
     vertex  1.010000e+01 -3.620000e+01  3.200000e+00
     vertex  9.100000e+00 -3.480000e+01  3.200000e+00
   endloop
 endfacet
 facet normal  0.000000e+00 -0.000000e+00  1.000000e+00
   outer loop
     vertex -9.100000e+00 -3.480000e+01  3.200000e+00
     vertex -9.100000e+00 -1.400000e+00  3.200000e+00
     vertex -1.010000e+01 -1.400000e+00  3.200000e+00
   endloop
 endfacet
 facet normal  0.000000e+00  0.000000e+00  1.000000e+00
   outer loop
     vertex -1.010000e+01 -3.620000e+01  3.200000e+00
     vertex -5.300000e+00 -3.480000e+01  3.200000e+00
     vertex -9.100000e+00 -3.480000e+01  3.200000e+00
   endloop
 endfacet
 facet normal  0.000000e+00  0.000000e+00  1.000000e+00
   outer loop
     vertex -1.010000e+01 -3.620000e+01  3.200000e+00
     vertex -9.100000e+00 -3.480000e+01  3.200000e+00
     vertex -1.010000e+01 -1.400000e+00  3.200000e+00
   endloop
 endfacet
 facet normal  0.000000e+00  0.000000e+00  1.000000e+00
   outer loop
     vertex -1.010000e+01 -3.620000e+01  3.200000e+00
     vertex  1.010000e+01 -3.620000e+01  3.200000e+00
     vertex  5.300000e+00 -3.480000e+01  3.200000e+00
   endloop
 endfacet
 facet normal  0.000000e+00  0.000000e+00  1.000000e+00
   outer loop
     vertex -1.010000e+01 -3.620000e+01  3.200000e+00
     vertex  5.300000e+00 -3.480000e+01  3.200000e+00
     vertex -5.300000e+00 -3.480000e+01  3.200000e+00
   endloop
 endfacet
 facet normal -1.000000e+00  1.063687e-16  0.000000e+00
   outer loop
     vertex  9.100000e+00 -1.400000e+00  3.200000e+00
     vertex  9.100000e+00 -1.400000e+00  1.000000e+00
     vertex  9.100000e+00 -3.480000e+01  1.000000e+00
   endloop
 endfacet
 facet normal -1.000000e+00  1.063687e-16  0.000000e+00
   outer loop
     vertex  9.100000e+00 -1.400000e+00  3.200000e+00
     vertex  9.100000e+00 -3.480000e+01  1.000000e+00
     vertex  9.100000e+00 -3.480000e+01  3.200000e+00
   endloop
 endfacet
 facet normal -0.000000e+00  0.000000e+00  1.000000e+00
   outer loop
     vertex  4.000000e+00 -3.400000e+00  1.000000e+00
     vertex  8.600000e+00 -3.400000e+00  1.000000e+00
     vertex  9.100000e+00 -1.400000e+00  1.000000e+00
   endloop
 endfacet
 facet normal  0.000000e+00  0.000000e+00  1.000000e+00
   outer loop
     vertex -9.100000e+00 -1.400000e+00  1.000000e+00
     vertex  4.000000e+00 -3.400000e+00  1.000000e+00
     vertex  9.100000e+00 -1.400000e+00  1.000000e+00
   endloop
 endfacet
 facet normal  0.000000e+00  0.000000e+00  1.000000e+00
   outer loop
     vertex -9.100000e+00 -1.400000e+00  1.000000e+00
     vertex -4.000000e+00 -3.400000e+00  1.000000e+00
     vertex  4.000000e+00 -3.400000e+00  1.000000e+00
   endloop
 endfacet
 facet normal -0.000000e+00 -0.000000e+00  1.000000e+00
   outer loop
     vertex -8.600000e+00 -3.400000e+00  1.000000e+00
     vertex -4.000000e+00 -3.400000e+00  1.000000e+00
     vertex -9.100000e+00 -1.400000e+00  1.000000e+00
   endloop
 endfacet
 facet normal -0.000000e+00  0.000000e+00  1.000000e+00
   outer loop
     vertex  8.600000e+00 -3.440000e+01  1.000000e+00
     vertex  9.100000e+00 -3.480000e+01  1.000000e+00
     vertex  8.600000e+00 -3.400000e+00  1.000000e+00
   endloop
 endfacet
 facet normal -0.000000e+00  0.000000e+00  1.000000e+00
   outer loop
     vertex  4.000000e+00 -3.440000e+01  1.000000e+00
     vertex  9.100000e+00 -3.480000e+01  1.000000e+00
     vertex  8.600000e+00 -3.440000e+01  1.000000e+00
   endloop
 endfacet
 facet normal  0.000000e+00  0.000000e+00  1.000000e+00
   outer loop
     vertex -4.000000e+00 -3.440000e+01  1.000000e+00
     vertex  4.000000e+00 -3.440000e+01  1.000000e+00
     vertex  4.000000e+00 -3.400000e+00  1.000000e+00
   endloop
 endfacet
 facet normal  0.000000e+00  0.000000e+00  1.000000e+00
   outer loop
     vertex -4.000000e+00 -3.440000e+01  1.000000e+00
     vertex  4.000000e+00 -3.400000e+00  1.000000e+00
     vertex -4.000000e+00 -3.400000e+00  1.000000e+00
   endloop
 endfacet
 facet normal  0.000000e+00  0.000000e+00  1.000000e+00
   outer loop
     vertex -9.100000e+00 -3.480000e+01  1.000000e+00
     vertex -4.000000e+00 -3.440000e+01  1.000000e+00
     vertex -8.600000e+00 -3.440000e+01  1.000000e+00
   endloop
 endfacet
 facet normal  0.000000e+00  0.000000e+00  1.000000e+00
   outer loop
     vertex -9.100000e+00 -3.480000e+01  1.000000e+00
     vertex -8.600000e+00 -3.440000e+01  1.000000e+00
     vertex -8.600000e+00 -3.400000e+00  1.000000e+00
   endloop
 endfacet
 facet normal  0.000000e+00 -0.000000e+00  1.000000e+00
   outer loop
     vertex  9.100000e+00 -3.480000e+01  1.000000e+00
     vertex  9.100000e+00 -1.400000e+00  1.000000e+00
     vertex  8.600000e+00 -3.400000e+00  1.000000e+00
   endloop
 endfacet
 facet normal  0.000000e+00  0.000000e+00  1.000000e+00
   outer loop
     vertex -9.100000e+00 -1.400000e+00  1.000000e+00
     vertex -9.100000e+00 -3.480000e+01  1.000000e+00
     vertex -8.600000e+00 -3.400000e+00  1.000000e+00
   endloop
 endfacet
 facet normal  0.000000e+00  0.000000e+00  1.000000e+00
   outer loop
     vertex -9.100000e+00 -3.480000e+01  1.000000e+00
     vertex  9.100000e+00 -3.480000e+01  1.000000e+00
     vertex  4.000000e+00 -3.440000e+01  1.000000e+00
   endloop
 endfacet
 facet normal  0.000000e+00  0.000000e+00  1.000000e+00
   outer loop
     vertex -9.100000e+00 -3.480000e+01  1.000000e+00
     vertex  4.000000e+00 -3.440000e+01  1.000000e+00
     vertex -4.000000e+00 -3.440000e+01  1.000000e+00
   endloop
 endfacet
 facet normal  1.000000e+00 -1.063687e-16  0.000000e+00
   outer loop
     vertex -9.100000e+00 -1.400000e+00  3.200000e+00
     vertex -9.100000e+00 -3.480000e+01  1.000000e+00
     vertex -9.100000e+00 -1.400000e+00  1.000000e+00
   endloop
 endfacet
 facet normal  1.000000e+00 -1.063687e-16  0.000000e+00
   outer loop
     vertex -9.100000e+00 -1.400000e+00  3.200000e+00
     vertex -9.100000e+00 -3.480000e+01  3.200000e+00
     vertex -9.100000e+00 -3.480000e+01  1.000000e+00
   endloop
 endfacet
 facet normal -1.000000e+00  1.020895e-16  0.000000e+00
   outer loop
     vertex -1.010000e+01 -1.400000e+00  3.200000e+00
     vertex -1.010000e+01 -1.400000e+00  0.000000e+00
     vertex -1.010000e+01 -3.620000e+01  0.000000e+00
   endloop
 endfacet
 facet normal -1.000000e+00  1.020895e-16  0.000000e+00
   outer loop
     vertex -1.010000e+01 -1.400000e+00  3.200000e+00
     vertex -1.010000e+01 -3.620000e+01  0.000000e+00
     vertex -1.010000e+01 -3.620000e+01  3.200000e+00
   endloop
 endfacet
 facet normal -8.859029e-17 -7.071068e-01  7.071068e-01
   outer loop
     vertex -4.500000e+00 -1.400000e+00  3.200000e+00
     vertex -8.100000e+00 -1.600000e+00  3.000000e+00
     vertex -4.500000e+00 -1.600000e+00  3.000000e+00
   endloop
 endfacet
 facet normal -8.722736e-17 -7.071068e-01  7.071068e-01
   outer loop
     vertex -4.500000e+00 -1.400000e+00  3.200000e+00
     vertex -8.100000e+00 -1.400000e+00  3.200000e+00
     vertex -8.100000e+00 -1.600000e+00  3.000000e+00
   endloop
 endfacet
 facet normal -1.000000e+00  0.000000e+00 -0.000000e+00
   outer loop
     vertex -8.100000e+00 -1.400000e+00  3.200000e+00
     vertex -8.100000e+00 -1.400000e+00  2.200000e+00
     vertex -8.100000e+00 -1.600000e+00  2.400000e+00
   endloop
 endfacet
 facet normal -1.000000e+00  0.000000e+00  0.000000e+00
   outer loop
     vertex -8.100000e+00 -1.400000e+00  3.200000e+00
     vertex -8.100000e+00 -1.600000e+00  2.400000e+00
     vertex -8.100000e+00 -1.600000e+00  3.000000e+00
   endloop
 endfacet
 facet normal -8.859029e-17 -7.071068e-01 -7.071068e-01
   outer loop
     vertex -4.500000e+00 -1.600000e+00  2.400000e+00
     vertex -8.100000e+00 -1.400000e+00  2.200000e+00
     vertex -4.500000e+00 -1.400000e+00  2.200000e+00
   endloop
 endfacet
 facet normal -8.722736e-17 -7.071068e-01 -7.071068e-01
   outer loop
     vertex -4.500000e+00 -1.600000e+00  2.400000e+00
     vertex -8.100000e+00 -1.600000e+00  2.400000e+00
     vertex -8.100000e+00 -1.400000e+00  2.200000e+00
   endloop
 endfacet
 facet normal -8.859029e-17 -7.071068e-01 -7.071068e-01
   outer loop
     vertex  8.100000e+00 -1.600000e+00  2.400000e+00
     vertex  4.500000e+00 -1.400000e+00  2.200000e+00
     vertex  8.100000e+00 -1.400000e+00  2.200000e+00
   endloop
 endfacet
 facet normal -8.722736e-17 -7.071068e-01 -7.071068e-01
   outer loop
     vertex  8.100000e+00 -1.600000e+00  2.400000e+00
     vertex  4.500000e+00 -1.600000e+00  2.400000e+00
     vertex  4.500000e+00 -1.400000e+00  2.200000e+00
   endloop
 endfacet
 facet normal  1.000000e+00  0.000000e+00  0.000000e+00
   outer loop
     vertex  8.100000e+00 -1.400000e+00  3.200000e+00
     vertex  8.100000e+00 -1.600000e+00  2.400000e+00
     vertex  8.100000e+00 -1.400000e+00  2.200000e+00
   endloop
 endfacet
 facet normal  1.000000e+00  0.000000e+00  0.000000e+00
   outer loop
     vertex  8.100000e+00 -1.400000e+00  3.200000e+00
     vertex  8.100000e+00 -1.600000e+00  3.000000e+00
     vertex  8.100000e+00 -1.600000e+00  2.400000e+00
   endloop
 endfacet
 facet normal -8.859029e-17 -7.071068e-01  7.071068e-01
   outer loop
     vertex  8.100000e+00 -1.400000e+00  3.200000e+00
     vertex  4.500000e+00 -1.600000e+00  3.000000e+00
     vertex  8.100000e+00 -1.600000e+00  3.000000e+00
   endloop
 endfacet
 facet normal -8.722736e-17 -7.071068e-01  7.071068e-01
   outer loop
     vertex  8.100000e+00 -1.400000e+00  3.200000e+00
     vertex  4.500000e+00 -1.400000e+00  3.200000e+00
     vertex  4.500000e+00 -1.600000e+00  3.000000e+00
   endloop
 endfacet
 facet normal  0.000000e+00 -1.000000e+00  0.000000e+00
   outer loop
     vertex -1.010000e+01 -3.620000e+01  3.200000e+00
     vertex -1.010000e+01 -3.620000e+01  0.000000e+00
     vertex  1.010000e+01 -3.620000e+01  0.000000e+00
   endloop
 endfacet
 facet normal  0.000000e+00 -1.000000e+00  0.000000e+00
   outer loop
     vertex -1.010000e+01 -3.620000e+01  3.200000e+00
     vertex  1.010000e+01 -3.620000e+01  0.000000e+00
     vertex  1.010000e+01 -3.620000e+01  3.200000e+00
   endloop
 endfacet
 facet normal -1.000000e+00  1.146037e-16  0.000000e+00
   outer loop
     vertex  8.600000e+00 -3.400000e+00  1.000000e+00
     vertex  8.600000e+00 -3.400000e+00  0.000000e+00
     vertex  8.600000e+00 -3.440000e+01  0.000000e+00
   endloop
 endfacet
 facet normal -1.000000e+00  1.146037e-16  0.000000e+00
   outer loop
     vertex  8.600000e+00 -3.400000e+00  1.000000e+00
     vertex  8.600000e+00 -3.440000e+01  0.000000e+00
     vertex  8.600000e+00 -3.440000e+01  1.000000e+00
   endloop
 endfacet
 facet normal  0.000000e+00  1.000000e+00  0.000000e+00
   outer loop
     vertex  4.000000e+00 -3.440000e+01  1.000000e+00
     vertex  8.600000e+00 -3.440000e+01  0.000000e+00
     vertex  4.000000e+00 -3.440000e+01  0.000000e+00
   endloop
 endfacet
 facet normal -0.000000e+00  1.000000e+00  0.000000e+00
   outer loop
     vertex  4.000000e+00 -3.440000e+01  1.000000e+00
     vertex  8.600000e+00 -3.440000e+01  1.000000e+00
     vertex  8.600000e+00 -3.440000e+01  0.000000e+00
   endloop
 endfacet
 facet normal  0.000000e+00 -1.000000e+00  0.000000e+00
   outer loop
     vertex  4.000000e+00 -3.400000e+00  1.000000e+00
     vertex  4.000000e+00 -3.400000e+00  0.000000e+00
     vertex  8.600000e+00 -3.400000e+00  0.000000e+00
   endloop
 endfacet
 facet normal  0.000000e+00 -1.000000e+00  0.000000e+00
   outer loop
     vertex  4.000000e+00 -3.400000e+00  1.000000e+00
     vertex  8.600000e+00 -3.400000e+00  0.000000e+00
     vertex  8.600000e+00 -3.400000e+00  1.000000e+00
   endloop
 endfacet
 facet normal  1.000000e+00 -1.146037e-16  0.000000e+00
   outer loop
     vertex  4.000000e+00 -3.400000e+00  1.000000e+00
     vertex  4.000000e+00 -3.440000e+01  0.000000e+00
     vertex  4.000000e+00 -3.400000e+00  0.000000e+00
   endloop
 endfacet
 facet normal  1.000000e+00 -1.146037e-16  0.000000e+00
   outer loop
     vertex  4.000000e+00 -3.400000e+00  1.000000e+00
     vertex  4.000000e+00 -3.440000e+01  1.000000e+00
     vertex  4.000000e+00 -3.440000e+01  0.000000e+00
   endloop
 endfacet
 facet normal -1.000000e+00  1.146037e-16  0.000000e+00
   outer loop
     vertex -4.000000e+00 -3.400000e+00  1.000000e+00
     vertex -4.000000e+00 -3.400000e+00  0.000000e+00
     vertex -4.000000e+00 -3.440000e+01  0.000000e+00
   endloop
 endfacet
 facet normal -1.000000e+00  1.146037e-16  0.000000e+00
   outer loop
     vertex -4.000000e+00 -3.400000e+00  1.000000e+00
     vertex -4.000000e+00 -3.440000e+01  0.000000e+00
     vertex -4.000000e+00 -3.440000e+01  1.000000e+00
   endloop
 endfacet
 facet normal  0.000000e+00 -1.000000e+00  0.000000e+00
   outer loop
     vertex -8.600000e+00 -3.400000e+00  1.000000e+00
     vertex -8.600000e+00 -3.400000e+00  0.000000e+00
     vertex -4.000000e+00 -3.400000e+00  0.000000e+00
   endloop
 endfacet
 facet normal  0.000000e+00 -1.000000e+00  0.000000e+00
   outer loop
     vertex -8.600000e+00 -3.400000e+00  1.000000e+00
     vertex -4.000000e+00 -3.400000e+00  0.000000e+00
     vertex -4.000000e+00 -3.400000e+00  1.000000e+00
   endloop
 endfacet
 facet normal  1.000000e+00 -1.146037e-16  0.000000e+00
   outer loop
     vertex -8.600000e+00 -3.400000e+00  1.000000e+00
     vertex -8.600000e+00 -3.440000e+01  0.000000e+00
     vertex -8.600000e+00 -3.400000e+00  0.000000e+00
   endloop
 endfacet
 facet normal  1.000000e+00 -1.146037e-16  0.000000e+00
   outer loop
     vertex -8.600000e+00 -3.400000e+00  1.000000e+00
     vertex -8.600000e+00 -3.440000e+01  1.000000e+00
     vertex -8.600000e+00 -3.440000e+01  0.000000e+00
   endloop
 endfacet
 facet normal  0.000000e+00  1.000000e+00  0.000000e+00
   outer loop
     vertex -8.600000e+00 -3.440000e+01  1.000000e+00
     vertex -4.000000e+00 -3.440000e+01  0.000000e+00
     vertex -8.600000e+00 -3.440000e+01  0.000000e+00
   endloop
 endfacet
 facet normal -0.000000e+00  1.000000e+00  0.000000e+00
   outer loop
     vertex -8.600000e+00 -3.440000e+01  1.000000e+00
     vertex -4.000000e+00 -3.440000e+01  1.000000e+00
     vertex -4.000000e+00 -3.440000e+01  0.000000e+00
   endloop
 endfacet
 facet normal -1.233581e-16 -1.000000e+00 -0.000000e+00
   outer loop
     vertex -4.500000e+00 -1.600000e+00  3.000000e+00
     vertex -8.100000e+00 -1.600000e+00  2.400000e+00
     vertex -4.500000e+00 -1.600000e+00  2.400000e+00
   endloop
 endfacet
 facet normal -1.233581e-16 -1.000000e+00  0.000000e+00
   outer loop
     vertex -4.500000e+00 -1.600000e+00  3.000000e+00
     vertex -8.100000e+00 -1.600000e+00  3.000000e+00
     vertex -8.100000e+00 -1.600000e+00  2.400000e+00
   endloop
 endfacet
 facet normal -1.233581e-16 -1.000000e+00 -0.000000e+00
   outer loop
     vertex  8.100000e+00 -1.600000e+00  3.000000e+00
     vertex  4.500000e+00 -1.600000e+00  2.400000e+00
     vertex  8.100000e+00 -1.600000e+00  2.400000e+00
   endloop
 endfacet
 facet normal -1.233581e-16 -1.000000e+00  0.000000e+00
   outer loop
     vertex  8.100000e+00 -1.600000e+00  3.000000e+00
     vertex  4.500000e+00 -1.600000e+00  3.000000e+00
     vertex  4.500000e+00 -1.600000e+00  2.400000e+00
   endloop
 endfacet
 facet normal -0.000000e+00  1.000000e+00  0.000000e+00
   outer loop
     vertex  5.300000e+00 -3.480000e+01  2.200000e+00
     vertex  9.100000e+00 -3.480000e+01  3.200000e+00
     vertex  9.100000e+00 -3.480000e+01  1.000000e+00
   endloop
 endfacet
 facet normal -0.000000e+00  1.000000e+00  0.000000e+00
   outer loop
     vertex  5.300000e+00 -3.480000e+01  3.200000e+00
     vertex  9.100000e+00 -3.480000e+01  3.200000e+00
     vertex  5.300000e+00 -3.480000e+01  2.200000e+00
   endloop
 endfacet
 facet normal -0.000000e+00  1.000000e+00  0.000000e+00
   outer loop
     vertex -9.100000e+00 -3.480000e+01  3.200000e+00
     vertex -5.300000e+00 -3.480000e+01  3.200000e+00
     vertex -5.300000e+00 -3.480000e+01  2.200000e+00
   endloop
 endfacet
 facet normal  0.000000e+00  1.000000e+00  0.000000e+00
   outer loop
     vertex -9.100000e+00 -3.480000e+01  3.200000e+00
     vertex -5.300000e+00 -3.480000e+01  2.200000e+00
     vertex -9.100000e+00 -3.480000e+01  1.000000e+00
   endloop
 endfacet
 facet normal  0.000000e+00  1.000000e+00  0.000000e+00
   outer loop
     vertex -9.100000e+00 -3.480000e+01  1.000000e+00
     vertex  5.300000e+00 -3.480000e+01  2.200000e+00
     vertex  9.100000e+00 -3.480000e+01  1.000000e+00
   endloop
 endfacet
 facet normal  0.000000e+00  1.000000e+00  0.000000e+00
   outer loop
     vertex -9.100000e+00 -3.480000e+01  1.000000e+00
     vertex -5.300000e+00 -3.480000e+01  2.200000e+00
     vertex  5.300000e+00 -3.480000e+01  2.200000e+00
   endloop
 endfacet
 facet normal  0.000000e+00  7.071068e-01  7.071068e-01
   outer loop
     vertex  5.300000e+00 -3.480000e+01  3.200000e+00
     vertex  5.300000e+00 -3.460000e+01  3.000000e+00
     vertex -5.300000e+00 -3.460000e+01  3.000000e+00
   endloop
 endfacet
 facet normal  0.000000e+00  7.071068e-01  7.071068e-01
   outer loop
     vertex  5.300000e+00 -3.480000e+01  3.200000e+00
     vertex -5.300000e+00 -3.460000e+01  3.000000e+00
     vertex -5.300000e+00 -3.480000e+01  3.200000e+00
   endloop
 endfacet
 facet normal -1.000000e+00  0.000000e+00  0.000000e+00
   outer loop
     vertex -5.300000e+00 -3.460000e+01  2.400000e+00
     vertex -5.300000e+00 -3.480000e+01  3.200000e+00
     vertex -5.300000e+00 -3.460000e+01  3.000000e+00
   endloop
 endfacet
 facet normal -1.000000e+00 -0.000000e+00  0.000000e+00
   outer loop
     vertex -5.300000e+00 -3.460000e+01  2.400000e+00
     vertex -5.300000e+00 -3.480000e+01  2.200000e+00
     vertex -5.300000e+00 -3.480000e+01  3.200000e+00
   endloop
 endfacet
 facet normal  0.000000e+00  7.071068e-01 -7.071068e-01
   outer loop
     vertex  5.300000e+00 -3.460000e+01  2.400000e+00
     vertex  5.300000e+00 -3.480000e+01  2.200000e+00
     vertex -5.300000e+00 -3.480000e+01  2.200000e+00
   endloop
 endfacet
 facet normal  0.000000e+00  7.071068e-01 -7.071068e-01
   outer loop
     vertex  5.300000e+00 -3.460000e+01  2.400000e+00
     vertex -5.300000e+00 -3.480000e+01  2.200000e+00
     vertex -5.300000e+00 -3.460000e+01  2.400000e+00
   endloop
 endfacet
 facet normal  1.000000e+00  0.000000e+00 -0.000000e+00
   outer loop
     vertex  5.300000e+00 -3.460000e+01  2.400000e+00
     vertex  5.300000e+00 -3.460000e+01  3.000000e+00
     vertex  5.300000e+00 -3.480000e+01  3.200000e+00
   endloop
 endfacet
 facet normal  1.000000e+00  0.000000e+00  0.000000e+00
   outer loop
     vertex  5.300000e+00 -3.460000e+01  2.400000e+00
     vertex  5.300000e+00 -3.480000e+01  3.200000e+00
     vertex  5.300000e+00 -3.480000e+01  2.200000e+00
   endloop
 endfacet
 facet normal  0.000000e+00  1.000000e+00  0.000000e+00
   outer loop
     vertex  5.300000e+00 -3.460000e+01  3.000000e+00
     vertex  5.300000e+00 -3.460000e+01  2.400000e+00
     vertex -5.300000e+00 -3.460000e+01  2.400000e+00
   endloop
 endfacet
 facet normal  0.000000e+00  1.000000e+00  0.000000e+00
   outer loop
     vertex  5.300000e+00 -3.460000e+01  3.000000e+00
     vertex -5.300000e+00 -3.460000e+01  2.400000e+00
     vertex -5.300000e+00 -3.460000e+01  3.000000e+00
   endloop
 endfacet
endsolid
